<svg width="20" height="20" viewBox="0 0 20 20" fill="none" xmlns="http://www.w3.org/2000/svg">
<path d="M3.34592 5.83334H5.72507" stroke="#666666" stroke-width="1.5" stroke-linecap="round" stroke-linejoin="round"/>
<path d="M3.34592 14.1667H8.10422" stroke="#666666" stroke-width="1.5" stroke-linecap="round" stroke-linejoin="round"/>
<path d="M15.2417 14.1667L17.6209 14.1667" stroke="#666666" stroke-width="1.5" stroke-linecap="round" stroke-linejoin="round"/>
<path d="M12.8625 5.83334L17.6209 5.83334" stroke="#666666" stroke-width="1.5" stroke-linecap="round" stroke-linejoin="round"/>
<path d="M5.72507 5.83334C5.72507 5.05677 5.72507 4.66849 5.8458 4.3622C6.00678 3.95382 6.31555 3.62937 6.70419 3.46021C6.99567 3.33334 7.36519 3.33334 8.10422 3.33334C8.84325 3.33334 9.21277 3.33334 9.50425 3.46021C9.89289 3.62937 10.2017 3.95382 10.3626 4.3622C10.4834 4.66849 10.4834 5.05677 10.4834 5.83334C10.4834 6.60991 10.4834 6.9982 10.3626 7.30448C10.2017 7.71286 9.89289 8.03732 9.50425 8.20648C9.21277 8.33334 8.84325 8.33334 8.10422 8.33334C7.36519 8.33334 6.99567 8.33334 6.70419 8.20648C6.31555 8.03732 6.00678 7.71286 5.8458 7.30448C5.72507 6.9982 5.72507 6.60991 5.72507 5.83334Z" stroke="#666666" stroke-width="1.5"/>
<path d="M10.4834 14.1667C10.4834 13.3901 10.4834 13.0018 10.6041 12.6955C10.7651 12.2871 11.0739 11.9627 11.4625 11.7935C11.754 11.6667 12.1235 11.6667 12.8625 11.6667C13.6016 11.6667 13.9711 11.6667 14.2625 11.7935C14.6512 11.9627 14.96 12.2871 15.1209 12.6955C15.2417 13.0018 15.2417 13.3901 15.2417 14.1667C15.2417 14.9432 15.2417 15.3315 15.1209 15.6378C14.96 16.0462 14.6512 16.3706 14.2625 16.5398C13.9711 16.6667 13.6016 16.6667 12.8625 16.6667C12.1235 16.6667 11.754 16.6667 11.4625 16.5398C11.0739 16.3706 10.7651 16.0462 10.6041 15.6378C10.4834 15.3315 10.4834 14.9432 10.4834 14.1667Z" stroke="#666666" stroke-width="1.5"/>
</svg>
