<svg width="4" height="18" viewBox="0 0 4 18" fill="none" xmlns="http://www.w3.org/2000/svg">
<path d="M3.25 2.75C3.25 2.05964 2.69036 1.5 2 1.5C1.30964 1.5 0.75 2.05964 0.75 2.75C0.75 3.44036 1.30964 4 2 4C2.69036 4 3.25 3.44036 3.25 2.75Z" stroke="white" stroke-width="1.5"/>
<path d="M3.25 9C3.25 8.30964 2.69036 7.75 2 7.75C1.30964 7.75 0.75 8.30964 0.75 9C0.75 9.69036 1.30964 10.25 2 10.25C2.69036 10.25 3.25 9.69036 3.25 9Z" stroke="white" stroke-width="1.5"/>
<path d="M3.25 15.25C3.25 14.5596 2.69036 14 2 14C1.30964 14 0.75 14.5596 0.75 15.25C0.75 15.9404 1.30964 16.5 2 16.5C2.69036 16.5 3.25 15.9404 3.25 15.25Z" stroke="white" stroke-width="1.5"/>
</svg>
