<svg width="24" height="24" viewBox="0 0 24 24" fill="none" xmlns="http://www.w3.org/2000/svg">
<g clip-path="url(#clip0_1_480)">
<path d="M17.5789 8.53331L13.7263 21.3755L24 8.53331H17.5789Z" fill="white"/>
<path d="M6.42108 8.53331H0L10.2737 21.3755L6.42108 8.53331Z" fill="white"/>
<path d="M23.7639 7.11764L18.6491 2.00287C18.5173 1.87101 18.3384 1.79695 18.1519 1.79695H15.5475L17.5428 7.11764H23.7639Z" fill="white"/>
<path d="M6.45718 7.11764L8.45241 1.79695H5.84804C5.66157 1.79695 5.48269 1.87101 5.35083 2.00287L0.236115 7.11764H6.45718Z" fill="white"/>
<path d="M16.1009 8.53331H7.89911L12 22.203L16.1009 8.53331Z" fill="white"/>
<path d="M7.96912 7.11764H16.0309L14.0356 1.79695H9.9644L7.96912 7.11764Z" fill="white"/>
</g>
<defs>
<clipPath id="clip0_1_480">
<rect width="24" height="24" fill="white"/>
</clipPath>
</defs>
</svg>
